<svg width="25" height="25" viewBox="0 0 25 25" fill="none" xmlns="http://www.w3.org/2000/svg">
<path d="M12.5 25C5.59644 25 0 19.4036 0 12.5C0 5.59644 5.59644 0 12.5 0C19.4036 0 25 5.59644 25 12.5C24.9927 19.4005 19.4005 24.9926 12.5 25ZM17.7642 12.1017C17.6777 11.9281 17.537 11.7874 17.3634 11.7009V11.6964L10.2205 8.12498C9.77942 7.90457 9.24318 8.08344 9.02272 8.52457C8.96004 8.64997 8.92776 8.78839 8.92855 8.92855V16.0714C8.92834 16.5645 9.32788 16.9644 9.82101 16.9647C9.9597 16.9647 10.0965 16.9325 10.2205 16.8705L17.3634 13.2991C17.8047 13.0791 17.9842 12.5431 17.7642 12.1017Z" fill="#5671F6"/>
</svg>
